<?xml version="1.0" encoding="UTF-8"?> <svg xmlns="http://www.w3.org/2000/svg" width="409" height="167" viewBox="0 0 409 167" fill="none"><path d="M94.1298 148.89L26.5398 137.27L26.6198 47.8596L69.3798 14.0396H332.57C369.75 14.0396 399.99 44.2896 399.99 81.4595C399.99 118.64 369.74 148.88 332.57 148.88" fill="white"></path><path d="M332.56 15.9998C368.72 15.9998 398.03 45.3098 398.03 81.4698C398.03 117.63 368.72 146.94 332.56 146.94H94.2898L28.4998 135.63L28.5798 48.8098L70.0598 15.9998H332.57M332.57 12.0898H70.0598H68.6998L67.6298 12.9298L26.1498 45.7398L24.6698 46.9098V48.7998L24.5898 135.62V138.92L27.8398 139.48L93.6298 150.79L93.9598 150.85H94.2898H332.56C370.82 150.85 401.94 119.73 401.94 81.4698C401.94 43.2099 370.82 12.0898 332.56 12.0898H332.57Z" fill="white"></path><path d="M13.7698 62.9296C12.2998 62.9296 10.9098 62.2196 10.0398 61.0396C9.3098 60.0496 9.0198 58.8296 9.2098 57.6096C9.3998 56.3896 10.0498 55.3196 11.0498 54.5896L67.9198 13.0596C68.0698 12.9496 68.2498 12.8896 68.4298 12.8896C68.6098 12.8896 68.7898 12.9396 68.9398 13.0496L126.37 54.5696C127.37 55.2896 128.02 56.3596 128.22 57.5696C128.42 58.7896 128.13 60.0096 127.4 60.9996C126.54 62.1996 125.14 62.9096 123.66 62.9096C122.69 62.9096 121.75 62.6096 120.96 62.0396L68.4498 24.0796L16.4898 62.0396C15.6898 62.6196 14.7498 62.9296 13.7698 62.9296Z" fill="#EE3124"></path><path d="M68.4299 13.7698L125.86 55.2898C127.53 56.4998 127.91 58.8398 126.7 60.5098C125.97 61.5198 124.82 62.0598 123.66 62.0598C122.9 62.0598 122.13 61.8298 121.47 61.3498L68.4499 23.0198L15.9699 61.3398C15.2999 61.8298 14.5299 62.0598 13.7699 62.0598C12.6199 62.0598 11.4799 61.5298 10.7499 60.5298C9.52991 58.8598 9.88991 56.5198 11.5599 55.2998L68.4299 13.7698ZM68.4299 12.0298C68.0699 12.0298 67.7099 12.1398 67.3999 12.3598L10.5299 53.8898C9.34991 54.7598 8.56991 56.0298 8.34991 57.4698C8.11991 58.9198 8.47991 60.3698 9.33991 61.5498C10.3699 62.9598 12.0199 63.7998 13.7699 63.7998C14.9399 63.7998 16.0499 63.4398 16.9999 62.7498L68.4699 25.1698L120.46 62.7598C121.4 63.4398 122.51 63.7998 123.67 63.7998C125.43 63.7998 127.09 62.9498 128.12 61.5298C128.98 60.3498 129.32 58.8998 129.09 57.4498C128.86 56.0098 128.08 54.7398 126.89 53.8798L69.4499 12.3598C69.1499 12.1398 68.7899 12.0298 68.4299 12.0298Z" fill="white"></path><path d="M38.36 150C31 150 25.02 144.02 25.02 136.66V57.84C25.02 57.56 25.16 57.29 25.39 57.13L67.96 26.93C68.11 26.82 68.29 26.77 68.46 26.77C68.63 26.77 68.81 26.82 68.96 26.93L112.05 57.48C112.28 57.64 112.42 57.91 112.42 58.19V136.66C112.42 144.02 106.43 150 99.07 150" fill="#EE3124"></path><path d="M68.4499 27.6399L111.54 58.1899V136.66C111.54 143.52 105.93 149.13 99.0599 149.13H38.3499C31.4899 149.13 25.8799 143.52 25.8799 136.66V57.8399L68.4499 27.6399ZM68.4499 25.8999C68.0999 25.8999 67.7499 26.0099 67.4399 26.2199L24.8699 56.4199C24.4099 56.7499 24.1399 57.2799 24.1399 57.8399V136.66C24.1399 144.49 30.5199 150.87 38.3499 150.87H99.0599C106.9 150.87 113.27 144.49 113.27 136.66V58.1899C113.27 57.6299 113 57.0999 112.54 56.7699L69.4499 26.2199C69.1499 26.0099 68.7999 25.8999 68.4399 25.8999H68.4499Z" fill="white"></path><path d="M147.56 67.4496C149.51 67.4496 151.78 66.9996 154.31 64.5496C156.31 62.5996 156.53 62.3296 156.71 62.3296C156.94 62.3296 157.12 62.5596 157.12 62.8296C157.12 63.0996 157.03 63.4596 156.94 63.7796C156.76 64.3696 156.76 64.8696 156.35 65.1396C152.36 67.8096 151.05 70.5396 145.88 70.5396C139.53 70.5396 134.82 64.0596 134.82 53.5396C134.82 43.8396 140.89 36.8096 148.1 36.8096C150.68 36.8096 151.73 37.3996 152.95 37.3996C154.17 37.3996 154.45 36.8096 154.99 36.8096C155.49 36.8096 155.67 37.0396 155.67 37.4896C155.67 37.8996 155.4 38.4896 155.4 40.8896C155.4 42.8396 155.67 44.0196 155.67 45.0096C155.67 45.5096 154.99 46.2796 154.63 46.2796C154.45 46.2796 154.36 46.2396 154.04 44.5996C153.31 40.7896 151.05 39.3396 146.33 39.3396C140.71 39.3396 138.44 45.5096 138.44 53.0696C138.44 61.9096 142.43 67.4396 147.55 67.4396" fill="#231F20"></path><path d="M177.34 64.0897C177.34 66.3597 178.02 67.3497 179.15 67.3497C180.06 67.3497 180.42 66.6697 180.74 66.6697C181.1 66.6697 181.15 66.8497 181.15 66.9397C181.15 67.2997 181.01 68.0697 180.61 68.2997C178.52 69.6197 178.34 70.5197 176.76 70.5197C175.18 70.5197 173.9 68.9797 173.9 66.2097V65.7597C168.55 68.7997 169.46 70.5197 165.97 70.5197C162.12 70.5197 159.4 67.9797 159.4 64.5397C159.4 58.5097 163.98 55.2497 173.91 54.3897V50.7197C173.91 48.1797 172.14 46.4097 169.42 46.4097C165.39 46.4097 162.89 49.7197 162.53 51.0797C162.48 51.2597 161.53 51.7097 161.35 51.7097C160.99 51.7097 160.9 51.6697 160.9 51.2597C160.9 50.7597 162.12 47.8997 162.12 45.0897C162.12 44.7297 162.76 44.4097 163.03 44.4097C163.57 44.4097 163.26 45.1397 164.8 45.1397C166.7 45.1397 167.56 44.4097 170.92 44.4097C175.04 44.4097 177.36 46.4097 177.36 50.3897M173.91 55.8297C166.61 56.9597 163.39 59.7297 163.39 63.7197C163.39 66.3997 164.93 67.6197 167.2 67.6197C169.47 67.6197 173.91 65.5397 173.91 59.4597V55.8297Z" fill="#231F20"></path><path d="M187.85 63.8199C187.85 66.5399 189.12 67.6299 190.39 67.6299C192.84 67.6299 194.29 64.5899 195.06 64.5899C195.24 64.5899 195.38 64.7699 195.38 64.9499C195.38 65.1299 195.29 65.3999 195.29 65.8999C195.29 66.3999 194.66 66.9899 193.48 68.1199C191.4 70.1599 190.03 70.5199 188.86 70.5199C186.5 70.5199 184.42 68.8899 184.42 65.7099V47.4899C183.69 47.5299 182.47 47.6699 181.93 47.6699C181.61 47.6699 181.52 47.2599 181.52 46.9899C181.52 45.4499 184.33 45.6799 185.83 42.1799C186.56 40.5499 186.74 39.6899 186.92 39.5999C187.28 39.3699 187.51 39.1899 187.73 39.1899C188 39.1899 188.23 39.4199 188.23 39.7299C188.23 40.4599 187.87 41.0899 187.87 45.4899H189.5C192.99 45.4899 193.53 44.3999 194.3 44.3999C194.62 44.3999 194.75 44.6299 194.75 44.8999C194.75 45.0299 194.48 45.1299 194.03 45.9399C193.49 46.8899 193.03 47.4799 192.49 47.4799H187.87" fill="#231F20"></path><path d="M216.12 49.8996C217.71 50.0796 219.25 50.0296 222.15 50.0296C225.05 50.0296 225.69 48.7596 226.96 48.7596C227.1 48.7596 227.28 48.9896 227.28 49.4896C227.28 50.0296 227.1 50.8096 227.1 52.2096C227.1 53.2996 227.28 54.9296 227.28 55.5596C227.28 56.0596 226.28 56.9696 226.01 56.9696C225.83 56.9696 225.65 56.7396 225.65 56.3396C225.65 52.9396 224.38 52.3096 220.03 52.3096C218.72 52.3096 217.45 52.3996 216.13 52.4896V64.9096C216.13 67.3096 217.63 68.3596 218.67 68.3596C220.94 68.3596 221.03 68.3996 221.03 68.8596C221.03 69.1796 220.26 69.9896 219.99 69.9896C219.54 69.9896 216.59 69.8096 214.1 69.8096C212.7 69.8096 210.88 69.9896 209.57 69.9896C209.3 69.9896 209.12 69.8496 209.12 69.6696C209.12 69.4896 209.3 69.2196 209.44 68.9896C209.71 68.5796 209.8 68.5396 210.53 68.3596C211.48 68.1296 212.53 67.3596 212.53 64.3696V42.9696C212.53 40.2996 211.12 38.9796 209.54 38.9796C208.59 38.9796 208.36 38.9396 208.36 38.6196C208.36 38.2596 208.59 38.2096 208.81 37.8996C209.04 37.5796 209.22 37.3596 209.44 37.3596C210.21 37.3596 212.07 37.5396 218.69 37.5396C227.44 37.5396 227.94 37.4996 229.12 37.3096C230.07 37.1696 230.07 36.8096 230.25 36.8096C230.48 36.8096 230.7 36.8996 230.7 37.8496C230.7 40.9296 231.65 44.1096 231.65 44.6496C231.65 44.9696 231.47 45.0096 231.24 45.2796C230.97 45.5996 231.01 45.8196 230.56 45.8196C230.06 45.8196 230.51 45.1896 229.43 43.0096C228.48 41.0096 226.44 39.6096 221.91 39.6096H216.15" fill="#231F20"></path><path d="M236.97 50.4897C236.97 48.4097 236.02 47.6797 235.2 47.5897C234.29 47.4997 233.98 47.4097 233.98 47.0497C233.98 46.8697 234.34 46.5997 234.43 46.4197C234.61 46.0997 234.7 46.0997 236.83 45.9697C238.51 45.8797 239.6 44.4297 239.87 44.4297C240.1 44.4297 240.68 44.6597 240.68 45.0597C240.68 45.5197 240.23 46.0997 240.23 49.2797C242.32 47.5597 243.63 44.4297 246.4 44.4297C247.85 44.4297 249.26 45.3797 249.26 45.9297C249.26 46.6097 249.04 46.6997 248.35 47.5197C247.17 48.9697 247.4 49.3797 246.72 49.3797C245.86 49.3797 246.22 47.8797 244.45 47.8797C242.59 47.8797 240.41 50.6497 240.41 54.6797V64.6497C240.41 67.4597 241.45 68.3697 243.18 68.3697C244.63 68.3697 245.22 68.5997 245.22 68.9097C245.22 69.0497 244.54 69.9997 244.22 69.9997C242.86 69.9997 241.68 69.8197 240.23 69.8197C237.28 69.8197 235.79 69.9997 234.56 69.9997C234.2 69.9997 234.02 69.9097 234.02 69.6397C234.02 69.4597 234.43 69.0997 234.7 68.7297C234.84 68.5497 235.56 68.4597 235.88 68.2697C236.83 67.7297 236.97 66.4597 236.97 65.3197" fill="#231F20"></path><path d="M257.06 65.54C257.06 67.76 258.1 68.26 259.01 68.35C260.64 68.53 260.96 68.58 260.96 68.89C260.96 69.03 260.42 69.98 260.23 69.98C259.6 69.98 257.96 69.8 255.79 69.8C253.93 69.8 253.25 69.98 251.21 69.98C250.85 69.98 250.67 69.89 250.67 69.62C250.67 69.44 250.99 69.03 251.13 68.8C251.27 68.57 251.94 68.62 252.44 68.25C253.3 67.62 253.62 66.85 253.62 65.3V50.48C253.62 48.4 253.21 47.71 251.85 47.58C250.95 47.49 250.63 47.4 250.63 47.04C250.63 46.86 250.99 46.59 251.08 46.41C251.26 46.09 251.35 46.05 252.94 45.96C255.25 45.82 256.25 44.42 256.52 44.42C256.75 44.42 257.34 44.6 257.34 45.05C257.34 45.69 257.07 46.77 257.07 47.54M254.94 40.97C254.4 40.97 252.27 38.43 252.27 37.75C252.27 36.98 254.45 34.71 255.17 34.71C256.26 34.71 257.89 36.75 257.89 37.57C257.89 38.61 255.8 40.97 254.94 40.97Z" fill="#231F20"></path><path d="M265.11 55.0197V56.4697C265.11 63.0897 268.46 67.6197 272.95 67.6197C276.44 67.6197 279.71 63.1797 280.2 63.1797C280.38 63.1797 280.56 63.5397 280.56 63.8597C280.56 64.6797 280.02 65.7697 277.57 67.8897C275.53 69.6597 273.08 70.5197 271.27 70.5197C265.65 70.5197 261.93 65.0797 261.93 57.7797C261.93 50.2997 266.24 44.4097 272.54 44.4097C278.25 44.4097 280.16 50.3897 280.16 53.7497C280.16 54.3797 279.53 55.1097 279.07 55.1097C278.07 55.1097 277.08 55.0197 272.86 55.0197M276.17 51.9397C276.17 49.2197 274.54 46.4097 270.82 46.4097C267.1 46.4097 265.38 51.6697 265.38 52.5697C265.38 53.1997 265.79 53.3797 270.32 53.3797C275.49 53.3797 276.17 53.1997 276.17 51.9297V51.9397Z" fill="#231F20"></path><path d="M299.45 53.1696C299.45 48.7296 297.86 47.3196 294.87 47.3196C292.78 47.3196 288.43 49.2196 288.43 53.3496V65.5496C288.43 67.7696 289.38 68.2696 290.79 68.3596C292.19 68.4496 292.24 68.5896 292.24 68.8996C292.24 68.9896 292.06 69.2196 291.88 69.4396C291.56 69.7996 291.65 69.9796 291.2 69.9796C290.97 69.9796 289.34 69.7996 287.16 69.7996C285.3 69.7996 284.62 69.9796 282.58 69.9796C282.22 69.9796 282.04 69.8896 282.04 69.5696C282.04 69.2996 282.27 69.2096 282.36 68.8896C282.45 68.5296 282.86 68.3496 283.4 68.2496C284.49 68.0696 284.99 66.4396 284.99 65.2996V50.4796C284.99 48.3996 284.58 47.7096 283.22 47.5796C282.31 47.4896 282 47.3996 282 47.0396C282 46.8596 282.36 46.5896 282.45 46.4096C282.63 46.0896 282.72 46.0496 284.31 45.9596C286.62 45.8196 287.62 44.3696 287.89 44.3696C288.12 44.3696 288.71 44.5496 288.71 44.9996C288.71 45.6396 288.44 46.7196 288.44 48.7596C293.24 45.7696 293.88 44.4096 296.6 44.4096C300.68 44.4096 302.9 46.8996 302.9 50.7596V65.6296C302.9 67.3996 303.85 68.2996 305.26 68.3996C306.66 68.4896 306.71 68.6296 306.71 68.9396C306.71 69.0796 306.03 70.0296 305.85 70.0296C304.76 70.0296 303.76 69.8496 300.5 69.8496C298.73 69.8496 297.92 70.0296 297.55 70.0296C297.37 70.0296 297.05 69.8496 297.05 69.6196C297.05 69.2596 297.59 68.5796 298.23 68.2996C299.32 67.8496 299.45 66.8896 299.45 65.3496" fill="#231F20"></path><path d="M323.19 40.2497C323.19 37.1197 322.42 36.4397 321.42 36.3497C319.51 36.1697 319.38 36.2097 319.38 35.8097C319.38 35.6297 319.74 35.2197 319.97 34.8997C320.06 34.7597 320.24 34.7597 321.65 34.7197C324.42 34.7197 326.09 32.7197 326.28 32.7197C326.47 32.7197 327.09 33.1297 327.09 33.4897C327.09 34.0797 326.64 35.1697 326.64 37.2097V64.2697C326.64 65.8097 327.14 66.8997 328.36 66.8997C329.04 66.8997 329.72 66.3997 330.13 66.3997C330.4 66.3997 330.49 66.5797 330.49 66.8497C330.49 67.1697 330.17 68.1197 329.27 68.5697C327.46 69.4797 326.73 70.5197 325.73 70.5197C324.5 70.5197 323.51 69.2997 323.33 65.7097C320.75 67.6097 319.98 70.5197 316.39 70.5197C311.45 70.5197 308 64.5397 308 58.1397C308 49.0297 313.89 44.3997 319.61 44.3997C320.88 44.3997 322.1 44.6297 323.19 45.1297M323.19 48.2997C322.05 47.1697 320.06 46.6697 318.25 46.6697C314.08 46.6697 311.18 50.8397 311.18 56.4197C311.18 63.1697 314.54 67.6197 317.75 67.6197C319.34 67.6197 319.7 67.0797 321.11 65.7597C322.52 64.4397 323.2 62.8997 323.2 60.8197V48.3097L323.19 48.2997Z" fill="#231F20"></path><path d="M338.33 65.54C338.33 67.76 339.28 68.26 340.69 68.35C342.09 68.44 342.23 68.58 342.23 68.89C342.23 69.03 341.69 69.98 341.51 69.98C340.88 69.98 338.79 69.8 335.89 69.8C334.17 69.8 333.17 69.98 332.49 69.98C332.13 69.98 331.95 69.89 331.95 69.62C331.95 68.89 332.31 68.4 333.31 68.26C334.4 68.13 334.9 66.45 334.9 65.31V40.24C334.9 37.11 334.13 36.43 333.13 36.34C331.22 36.16 331.09 36.2 331.09 35.8C331.09 35.62 331.45 35.21 331.68 34.89C331.77 34.75 331.95 34.75 333.36 34.71C336.12 34.71 337.8 32.71 337.98 32.71C338.16 32.71 338.8 33.12 338.8 33.48C338.8 34.07 338.35 35.16 338.35 37.2" fill="#231F20"></path><path d="M356.73 64.73C362.03 52.67 362.89 49.63 362.89 48.18C362.89 47.27 362.44 46.73 361.44 46.59C360.03 46.41 359.85 46.36 359.85 45.96C359.85 45.73 360.48 44.96 360.8 44.96C361.44 44.96 362.57 45.14 365.15 45.14C365.83 45.14 366.83 44.96 367.78 44.96C368.01 44.96 368.05 45.05 368.05 45.28C368.05 45.55 367.64 46.28 367.19 46.6C365.47 47.82 365.19 48.37 355.17 71.99C352.63 77.97 348.6 80.78 344.79 80.78C343.88 80.78 343.7 80.33 343.61 78.24C343.52 76.65 342.7 75.02 342.7 74.39C342.7 73.98 343.43 73.08 343.79 73.08C344.24 73.08 344.33 73.67 344.33 73.94C344.33 76.03 345.64 76.8 347.59 76.8C351.4 76.8 354.48 70.82 354.48 69.14C354.48 68.23 354.12 67.24 353.8 66.51C345.46 47.47 345.82 47.06 343.83 46.61C343.24 46.47 342.83 46.47 342.83 45.98C342.83 45.84 343.38 44.98 343.6 44.98C344.37 44.98 344.91 45.16 347.91 45.16C350.54 45.16 351.63 44.98 352.4 44.98C352.67 44.98 352.81 45.12 352.81 45.3C352.81 45.53 352.31 46.57 351.9 46.62C350.81 46.75 350.27 47.48 350.27 48.43C350.27 49.56 350.86 50.56 356.61 64.75" fill="#231F20"></path><path d="M142.38 104.27C142.38 106.72 143.47 108.08 145.33 108.08C147.01 108.08 147.23 108.17 147.23 108.58C147.23 108.85 147 108.9 146.78 109.17C146.64 109.44 146.51 109.71 146.1 109.71C145.69 109.71 145.06 109.53 139.16 109.53C136.35 109.53 136.39 109.71 135.8 109.71C135.62 109.71 135.35 109.57 135.35 109.26C135.35 108.95 135.53 108.94 135.67 108.72C135.94 108.31 136.03 108.27 136.85 108.08C138.03 107.81 138.75 106.4 138.75 104.09V82.6898C138.75 79.9198 137.89 78.9298 136.35 78.6998C135.26 78.5198 134.58 78.6998 134.58 78.1998C134.58 77.9298 135.22 77.0698 135.49 77.0698C136.44 77.0698 136.8 77.2498 140.66 77.2498C144.47 77.2498 146.01 76.7998 149.54 76.7998C155.71 76.7998 158.65 79.6998 158.61 84.2298C158.56 89.4898 153.8 94.9298 147.91 94.9298C146.64 94.9298 143.96 94.5698 142.38 94.2098M142.38 90.7698C142.38 91.5898 142.83 91.9498 144.51 92.3098C145.55 92.5398 146.78 92.6698 147.91 92.6698C152.53 92.6698 154.98 89.9498 154.98 85.4598C154.98 80.9698 151.94 79.0698 147.23 79.0698C145.23 79.0698 143.92 79.3398 142.38 79.5698V90.7698Z" fill="#231F20"></path><path d="M164.04 90.2099C164.04 88.1299 163.09 87.3999 162.27 87.3099C161.36 87.2199 161.05 87.1299 161.05 86.7699C161.05 86.5899 161.41 86.3199 161.5 86.1399C161.68 85.8199 161.77 85.8199 163.9 85.6899C165.58 85.5999 166.67 84.1499 166.94 84.1499C167.17 84.1499 167.76 84.3799 167.76 84.7799C167.76 85.2299 167.31 85.8199 167.31 88.9999C169.39 87.2799 170.71 84.1499 173.48 84.1499C174.93 84.1499 176.34 85.0999 176.34 85.6499C176.34 86.3299 176.11 86.4199 175.43 87.2399C174.25 88.6899 174.48 89.0999 173.8 89.0999C172.94 89.0999 173.3 87.5999 171.53 87.5999C169.67 87.5999 167.5 90.3699 167.5 94.3999V104.37C167.5 107.18 168.54 108.09 170.26 108.09C171.71 108.09 172.3 108.32 172.3 108.64C172.3 108.77 171.62 109.73 171.3 109.73C169.94 109.73 168.76 109.55 167.31 109.55C164.36 109.55 162.87 109.73 161.64 109.73C161.28 109.73 161.1 109.64 161.1 109.37C161.1 109.19 161.51 108.83 161.78 108.46C161.92 108.28 162.64 108.19 162.96 108.01C163.91 107.47 164.05 106.2 164.05 105.06" fill="#231F20"></path><path d="M195.05 103.82C195.05 106.09 195.73 107.08 196.86 107.08C197.77 107.08 198.13 106.4 198.45 106.4C198.81 106.4 198.86 106.58 198.86 106.67C198.86 107.03 198.72 107.8 198.32 108.03C196.24 109.34 196.05 110.25 194.47 110.25C192.89 110.25 191.61 108.71 191.61 105.94V105.49C186.26 108.53 187.17 110.25 183.68 110.25C179.83 110.25 177.11 107.71 177.11 104.27C177.11 98.2399 181.69 94.9799 191.62 94.1099V90.4399C191.62 87.8999 189.85 86.1299 187.13 86.1299C183.1 86.1299 180.6 89.4399 180.24 90.7999C180.2 90.9799 179.24 91.4299 179.06 91.4299C178.7 91.4299 178.61 91.3899 178.61 90.9799C178.61 90.4799 179.83 87.6199 179.83 84.8099C179.83 84.4499 180.46 84.1299 180.74 84.1299C181.28 84.1299 180.97 84.8599 182.51 84.8599C184.41 84.8599 185.28 84.1299 188.63 84.1299C192.76 84.1299 195.07 86.1299 195.07 90.1099M191.62 95.5499C184.32 96.6799 181.1 99.4499 181.1 103.44C181.1 106.11 182.64 107.34 184.91 107.34C187.18 107.34 191.62 105.26 191.62 99.1799V95.5499Z" fill="#231F20"></path><path d="M209.62 107.35C211.75 107.35 213.43 106.17 215.06 104.31C215.79 103.49 216.01 103.22 216.33 103.22C216.51 103.22 216.74 103.4 216.74 103.67C216.74 103.85 216.61 104.21 216.61 104.58C216.61 105.12 213.16 110.2 208.27 110.25C203.06 110.3 199.07 105.54 199.07 97.3297C199.07 89.1197 204.56 84.1396 210.09 84.1396C211.72 84.1396 213.08 84.7696 213.67 84.7696C214.3 84.7696 214.58 84.1396 215.3 84.1396C215.62 84.1396 215.75 84.2796 215.75 84.6396C215.75 85.4096 215.39 86.1797 215.39 87.7197C215.39 89.7197 215.57 90.1696 215.57 90.5296C215.57 90.8496 214.93 91.5296 214.53 91.5296C214.26 91.5296 214.08 91.0296 213.76 89.8496C213.03 87.0796 210.95 86.1296 208.5 86.1296C204.97 86.1296 202.25 89.7596 202.25 95.7396C202.25 103.31 206.1 107.34 209.64 107.34" fill="#231F20"></path><path d="M224.81 103.54C224.81 106.26 226.08 107.35 227.35 107.35C229.8 107.35 231.25 104.31 232.02 104.31C232.2 104.31 232.34 104.49 232.34 104.67C232.34 104.85 232.25 105.12 232.25 105.62C232.25 106.12 231.61 106.71 230.44 107.84C228.35 109.88 226.99 110.24 225.82 110.24C223.46 110.24 221.38 108.61 221.38 105.43V87.2097C220.65 87.2497 219.43 87.3897 218.89 87.3897C218.57 87.3897 218.48 86.9797 218.48 86.7097C218.48 85.1697 221.29 85.3997 222.79 81.8997C223.52 80.2697 223.7 79.4097 223.88 79.3197C224.24 79.0897 224.47 78.9097 224.7 78.9097C224.97 78.9097 225.2 79.1397 225.2 79.4497C225.2 80.1797 224.84 80.8097 224.84 85.2097H226.47C229.96 85.2097 230.5 84.1197 231.28 84.1197C231.6 84.1197 231.73 84.3497 231.73 84.6197C231.73 84.7497 231.46 84.8497 231 85.6597C230.46 86.6097 230 87.1997 229.46 87.1997H224.84" fill="#231F20"></path><path d="M240.32 105.27C240.32 107.49 241.36 107.99 242.27 108.08C243.9 108.26 244.22 108.31 244.22 108.63C244.22 108.76 243.68 109.72 243.49 109.72C242.86 109.72 241.22 109.54 239.05 109.54C237.19 109.54 236.51 109.72 234.47 109.72C234.11 109.72 233.92 109.63 233.92 109.36C233.92 109.18 234.24 108.77 234.37 108.54C234.51 108.31 235.19 108.36 235.68 107.99C236.54 107.36 236.86 106.59 236.86 105.04V90.2197C236.86 88.1397 236.45 87.4597 235.09 87.3197C234.18 87.2297 233.86 87.1397 233.86 86.7797C233.86 86.5997 234.22 86.3297 234.32 86.1497C234.5 85.8297 234.59 85.7897 236.18 85.6997C238.49 85.5597 239.49 84.1597 239.76 84.1597C239.99 84.1597 240.58 84.3397 240.58 84.7897C240.58 85.4297 240.31 86.5097 240.31 87.2797M238.18 80.7097C237.64 80.7097 235.5 78.1697 235.5 77.4897C235.5 76.7197 237.68 74.4497 238.4 74.4497C239.49 74.4497 241.12 76.4897 241.12 77.3097C241.12 78.3497 239.04 80.7097 238.17 80.7097H238.18Z" fill="#231F20"></path><path d="M255.76 107.35C257.89 107.35 259.57 106.17 261.2 104.31C261.92 103.49 262.15 103.22 262.47 103.22C262.65 103.22 262.88 103.4 262.88 103.67C262.88 103.85 262.74 104.21 262.74 104.58C262.74 105.12 259.29 110.2 254.4 110.25C249.19 110.3 245.2 105.54 245.2 97.3297C245.2 89.1197 250.68 84.1396 256.21 84.1396C257.84 84.1396 259.2 84.7696 259.79 84.7696C260.42 84.7696 260.7 84.1396 261.42 84.1396C261.74 84.1396 261.87 84.2796 261.87 84.6396C261.87 85.4096 261.51 86.1797 261.51 87.7197C261.51 89.7197 261.69 90.1696 261.69 90.5296C261.69 90.8496 261.06 91.5296 260.65 91.5296C260.38 91.5296 260.2 91.0296 259.88 89.8496C259.15 87.0796 257.07 86.1296 254.62 86.1296C251.09 86.1296 248.36 89.7596 248.36 95.7396C248.36 103.31 252.21 107.34 255.75 107.34" fill="#231F20"></path><path d="M268.5 94.7499V96.1999C268.5 102.82 271.85 107.35 276.34 107.35C279.83 107.35 283.1 102.91 283.59 102.91C283.77 102.91 283.95 103.27 283.95 103.59C283.95 104.41 283.41 105.5 280.96 107.63C278.92 109.4 276.47 110.26 274.66 110.26C269.04 110.26 265.32 104.82 265.32 97.5199C265.32 90.0399 269.63 84.1499 275.93 84.1499C281.64 84.1499 283.55 90.1299 283.55 93.4899C283.55 94.1199 282.92 94.8499 282.46 94.8499C281.46 94.8499 280.47 94.7599 276.25 94.7599M279.56 91.6799C279.56 88.9599 277.93 86.1499 274.21 86.1499C270.49 86.1499 268.77 91.4099 268.77 92.3099C268.77 92.9499 269.18 93.1299 273.71 93.1299C278.88 93.1299 279.56 92.9499 279.56 91.6799Z" fill="#231F20"></path><path d="M125.85 55.2296L68.42 13.8096L11.55 55.2396C9.87997 56.4596 9.51997 58.7996 10.74 60.4696C11.96 62.1396 14.3 62.4996 15.97 61.2896L68.45 22.9696L121.47 61.2996C123.15 62.5096 125.49 62.1296 126.7 60.4596C127.91 58.7896 127.53 56.4496 125.86 55.2396" fill="#53C1B2"></path><path d="M68.4098 27.6196L25.8398 57.8196V136.64C25.8398 143.5 31.4498 149.11 38.3098 149.11H99.0198C105.88 149.11 111.5 143.5 111.5 136.64V58.1696" fill="#53C1B2"></path><path d="M52.5099 73.25H34.7V91.06H52.5099V73.25Z" fill="white"></path><path d="M77.51 73.25H59.71V91.06H77.51V73.25Z" fill="white"></path><path d="M102.74 73.25H84.9299V91.06H102.74V73.25Z" fill="white"></path><path d="M47.6799 153.08C37.1199 142.35 33.1099 132.77 33.8399 120.02C34.6399 105.96 53.2999 85.8999 62.8599 85.8999C64.9299 85.8999 66.5299 86.7999 67.4899 88.5099C68.1199 89.4699 71.0899 95.2299 58.7999 104.41C47.4299 112.9 38.4899 124.49 49.9699 151.54M62.8699 88.6899C55.3999 88.6899 37.3999 106.98 36.6399 120.17C36.0899 129.81 38.4799 137.53 44.7099 145.5C36.9199 121.54 46.4399 110.15 57.1299 102.17C67.6499 94.3099 65.1699 90.0699 65.1499 90.0199L65.0799 89.9099C64.6199 89.0699 63.9399 88.6899 62.8699 88.6899Z" fill="white"></path><path d="M48.68 152.1C38.76 142.02 34.52 132.76 35.24 120.1C36.15 104.15 61.42 80.3099 66.3 89.2499C66.3 89.2499 69.96 94.3399 57.96 103.3C45.96 112.26 37.09 124.77 48.68 152.1Z" fill="#231F20"></path><path d="M65.43 161.37C63.97 161.37 51.03 161.11 47.21 152.15C43.28 142.92 46.88 132.66 51.15 126.68C51.77 125.81 52.89 124.45 54.3 122.72C60.25 115.46 76.04 96.1599 69.91 90.6099C61.79 83.2499 64.23 73.7199 64.87 71.6899C64.27 67.7499 64.13 63.0899 66.67 62.4499C66.85 62.4099 67.03 62.3799 67.22 62.3799C69.36 62.3799 71.52 65.6299 72.87 68.1199L75.8 67.4499L78.74 67.3899C79.77 63.8899 81.39 60.1699 83.65 60.1699C86.11 60.1699 86.59 63.1899 87.01 65.8599C87.19 66.9799 87.48 68.8499 87.85 69.2299C94.12 75.6599 89.94 86.5899 89.45 87.7799C88.33 91.9499 90.53 94.5299 93.56 98.0999C96.99 102.14 101.26 107.16 100.72 116.05C99.9 129.54 90.28 146.04 86.91 151.44L87.09 151.47L87.41 151.83C89.04 153.67 88.88 155.18 88.45 156.12C86.27 160.98 70.38 161.36 65.56 161.36" fill="white"></path><path d="M84.61 152.45C84.61 152.45 98.37 131.81 99.33 115.97C100.29 100.13 85.25 97.7298 88.13 87.3298C88.13 87.3298 92.77 76.2898 86.85 70.2098C85.29 68.6098 85.89 61.5698 83.65 61.5698C81.73 61.5698 79.81 68.7698 79.81 68.7698L75.97 68.8498L72.13 69.7298C72.13 69.7298 68.93 63.3298 67.01 63.8098C65.09 64.2898 66.3 71.8098 66.3 71.8098C66.3 71.8098 62.37 81.8898 70.85 89.5698C79.33 97.2498 56 122.29 52.29 127.49C48.29 133.09 44.82 142.96 48.5 151.6C52.18 160.24 65.57 159.97 65.57 159.97C65.57 159.97 92.77 159.97 86.37 152.77" fill="#231F20"></path><path d="M94.2398 111.46C91.8998 116.91 85.6898 119.71 85.6898 119.71C85.6898 119.71 79.3798 116.18 77.0298 111.28C75.6098 108.32 76.3698 103.29 80.4298 102.85C84.0298 102.47 85.7198 105.66 85.7198 105.66C85.7198 105.66 87.6798 102.39 91.2498 102.87C95.9598 103.49 95.5298 108.45 94.2398 111.46Z" fill="white"></path><path d="M85.7498 118.1C84.1698 117.1 79.9998 114.23 78.2998 110.67C77.5798 109.16 77.5998 107.08 78.3598 105.72C78.8498 104.85 79.5998 104.35 80.5898 104.24C80.7398 104.22 80.8898 104.21 81.0298 104.21C83.3098 104.21 84.4398 106.23 84.4898 106.32L85.6598 108.46L86.9198 106.38C86.9198 106.38 88.2798 104.22 90.5498 104.22C90.7198 104.22 90.8898 104.23 91.0698 104.26C92.1398 104.4 92.8698 104.82 93.2698 105.54C94.0498 106.92 93.6798 109.23 92.9498 110.91C91.2798 114.81 87.2998 117.27 85.7498 118.11" fill="#EE3124"></path><path d="M140.52 128.4C140.52 128.8 140.42 129.15 140.23 129.47C140.03 129.79 139.76 130.01 139.4 130.15C139.3 130.18 139.21 130.22 139.12 130.24C139.03 130.27 138.92 130.29 138.8 130.31C138.67 130.33 138.52 130.34 138.35 130.35C138.17 130.35 137.95 130.35 137.69 130.35H135.84V123.19H136.87C137.23 123.19 137.52 123.19 137.75 123.19C137.98 123.19 138.18 123.2 138.33 123.22C138.48 123.23 138.61 123.25 138.71 123.27C138.81 123.29 138.91 123.32 139 123.34C139.37 123.47 139.66 123.68 139.89 123.98C140.11 124.28 140.22 124.61 140.22 124.98C140.22 125.35 140.11 125.68 139.89 125.95C139.67 126.22 139.35 126.42 138.94 126.55C139.16 126.59 139.35 126.64 139.49 126.7C139.63 126.76 139.76 126.83 139.88 126.93C140.12 127.11 140.28 127.33 140.38 127.6C140.48 127.86 140.53 128.13 140.53 128.39M139.28 125.1C139.28 124.81 139.21 124.57 139.06 124.37C138.91 124.17 138.71 124.04 138.47 123.97C138.37 123.94 138.26 123.92 138.14 123.92C138.02 123.92 137.87 123.91 137.69 123.91H136.68V126.27H137.92C138.11 126.27 138.28 126.27 138.42 126.24C138.56 126.22 138.67 126.19 138.76 126.14C138.85 126.09 138.93 126.03 138.99 125.95C139.05 125.87 139.11 125.77 139.17 125.65C139.25 125.48 139.28 125.29 139.28 125.1ZM139.63 128.31C139.63 128 139.55 127.72 139.39 127.49C139.23 127.25 139.02 127.11 138.76 127.05C138.66 127.03 138.54 127.01 138.41 127C138.27 126.99 138.11 126.98 137.93 126.98H136.67V129.65H138.19C138.72 129.65 139.09 129.54 139.31 129.3C139.53 129.07 139.63 128.74 139.63 128.31Z" fill="#231F20"></path><path d="M144.13 130.55C144.05 130.81 143.95 131.05 143.85 131.26C143.75 131.47 143.63 131.66 143.5 131.83C143.37 132 143.22 132.14 143.05 132.25C142.88 132.36 142.68 132.44 142.45 132.5L142.21 131.95C142.38 131.9 142.52 131.84 142.64 131.76C142.76 131.68 142.86 131.59 142.95 131.47C143.04 131.35 143.12 131.2 143.2 131.02C143.27 130.84 143.34 130.62 143.41 130.35L143.08 130.4C143.07 130.32 143.04 130.2 143 130.04C142.96 129.88 142.91 129.71 142.86 129.53C142.81 129.35 142.76 129.17 142.7 128.99C142.65 128.81 142.6 128.66 142.55 128.53L141.43 125.27L142.23 125L143.3 128.37C143.33 128.48 143.37 128.6 143.4 128.74C143.43 128.87 143.47 129 143.49 129.13C143.52 129.26 143.54 129.37 143.56 129.46C143.58 129.56 143.59 129.63 143.6 129.67H143.62C143.68 129.49 143.73 129.31 143.78 129.12C143.83 128.94 143.89 128.75 143.94 128.57L144.96 125.16H145.89" fill="#231F20"></path><path d="M151.23 125.79H150.15V129.14C150.15 129.43 150.2 129.63 150.29 129.75C150.38 129.86 150.56 129.92 150.82 129.92C150.94 129.92 151.03 129.92 151.11 129.89C151.18 129.87 151.26 129.85 151.33 129.81L151.44 130.33C151.18 130.47 150.87 130.54 150.52 130.54C150.38 130.54 150.26 130.53 150.15 130.5C150.04 130.47 149.94 130.44 149.84 130.39C149.66 130.3 149.53 130.17 149.45 130C149.37 129.83 149.33 129.62 149.33 129.35V125.78H148.65V125.16H149.33C149.33 125.05 149.33 124.92 149.34 124.79C149.34 124.66 149.35 124.52 149.37 124.4C149.38 124.27 149.39 124.16 149.4 124.06C149.4 123.96 149.41 123.89 149.42 123.85L150.27 123.66C150.27 123.66 150.26 123.77 150.24 123.88C150.23 123.98 150.22 124.11 150.21 124.25C150.2 124.39 150.19 124.54 150.18 124.7C150.17 124.86 150.16 125.02 150.16 125.17H151.46" fill="#231F20"></path><path d="M155.83 130.36V126.77C155.83 126.58 155.82 126.42 155.79 126.3C155.76 126.18 155.71 126.08 155.63 126C155.57 125.94 155.48 125.89 155.38 125.85C155.28 125.81 155.16 125.79 155.03 125.79C154.78 125.79 154.52 125.87 154.25 126.02C153.98 126.17 153.74 126.39 153.51 126.67V130.36H152.7V123.95C152.7 123.64 152.68 123.4 152.64 123.21C152.6 123.03 152.58 122.92 152.56 122.88L153.37 122.72C153.37 122.72 153.41 122.89 153.45 123.1C153.49 123.31 153.51 123.6 153.51 123.95V125.16C153.51 125.31 153.51 125.45 153.5 125.6C153.5 125.75 153.49 125.84 153.48 125.87C153.72 125.65 153.98 125.45 154.27 125.29C154.56 125.13 154.88 125.05 155.21 125.05C155.52 125.05 155.8 125.13 156.06 125.28C156.31 125.43 156.47 125.63 156.55 125.87C156.58 125.97 156.61 126.08 156.62 126.18C156.63 126.28 156.64 126.43 156.64 126.62V130.34" fill="#231F20"></path><path d="M159.12 127.9V128.03C159.12 128.27 159.14 128.49 159.17 128.68C159.2 128.87 159.27 129.03 159.36 129.17C159.51 129.39 159.69 129.56 159.92 129.66C160.15 129.76 160.39 129.81 160.66 129.81C161.15 129.81 161.58 129.65 161.93 129.32L162.24 129.84C162.01 130.05 161.74 130.21 161.44 130.32C161.14 130.43 160.82 130.49 160.48 130.49C159.76 130.49 159.19 130.24 158.79 129.75C158.38 129.26 158.18 128.58 158.18 127.72C158.18 127.28 158.23 126.91 158.33 126.61C158.43 126.31 158.59 126.02 158.81 125.76C159.22 125.28 159.74 125.04 160.36 125.04C160.94 125.04 161.41 125.23 161.77 125.6C161.88 125.72 161.97 125.84 162.05 125.97C162.13 126.1 162.19 126.24 162.23 126.41C162.28 126.58 162.31 126.77 162.33 126.99C162.35 127.21 162.36 127.48 162.36 127.79V127.9M161.49 127.28C161.49 126.99 161.46 126.76 161.42 126.58C161.38 126.4 161.33 126.25 161.25 126.12C161.16 125.98 161.03 125.87 160.86 125.79C160.69 125.71 160.51 125.66 160.31 125.66C159.55 125.66 159.15 126.2 159.11 127.28H161.49Z" fill="#231F20"></path><path d="M170.23 130.36L169.55 128.16H166.88L166.19 130.36H165.32L167.71 123.2H168.83L171.2 130.36M168.24 123.95L167.11 127.46H169.33L168.23 123.95H168.24Z" fill="#231F20"></path><path d="M178.05 130.36V126.52C178.05 126.01 177.83 125.76 177.38 125.76C177.14 125.76 176.92 125.83 176.72 125.97C176.51 126.11 176.28 126.31 176.01 126.56V130.36H175.19V126.67C175.19 126.51 175.18 126.38 175.16 126.27C175.14 126.17 175.1 126.08 175.05 126C174.93 125.86 174.75 125.79 174.52 125.79C174.32 125.79 174.11 125.84 173.91 125.95C173.7 126.06 173.47 126.23 173.2 126.48V130.36H172.42V126.33C172.42 126 172.39 125.74 172.34 125.55C172.29 125.37 172.25 125.26 172.23 125.22L173.02 125.03C173.02 125.03 173.08 125.17 173.13 125.33C173.18 125.49 173.21 125.64 173.21 125.8C173.29 125.7 173.39 125.61 173.51 125.51C173.63 125.42 173.76 125.33 173.89 125.26C174.03 125.19 174.16 125.13 174.31 125.08C174.45 125.03 174.59 125.01 174.72 125.01C174.98 125.01 175.22 125.08 175.44 125.23C175.67 125.38 175.83 125.59 175.93 125.87C176.18 125.61 176.46 125.4 176.75 125.24C177.05 125.08 177.33 125.01 177.59 125.01C177.98 125.01 178.29 125.14 178.53 125.4C178.77 125.66 178.89 126 178.89 126.42V130.34" fill="#231F20"></path><path d="M181.37 127.9V128.03C181.37 128.27 181.39 128.49 181.42 128.68C181.45 128.87 181.52 129.03 181.61 129.17C181.76 129.39 181.94 129.56 182.17 129.66C182.4 129.76 182.64 129.81 182.9 129.81C183.39 129.81 183.82 129.65 184.17 129.32L184.48 129.84C184.25 130.05 183.98 130.21 183.68 130.32C183.38 130.43 183.06 130.49 182.72 130.49C182 130.49 181.43 130.24 181.03 129.75C180.62 129.26 180.42 128.58 180.42 127.72C180.42 127.28 180.47 126.91 180.57 126.61C180.67 126.31 180.83 126.02 181.05 125.76C181.46 125.28 181.98 125.04 182.61 125.04C183.19 125.04 183.66 125.23 184.02 125.6C184.13 125.72 184.22 125.84 184.3 125.97C184.38 126.1 184.44 126.24 184.48 126.41C184.53 126.58 184.56 126.77 184.58 126.99C184.6 127.21 184.61 127.48 184.61 127.79V127.9M183.74 127.28C183.74 126.99 183.71 126.76 183.67 126.58C183.63 126.4 183.58 126.25 183.5 126.12C183.41 125.98 183.28 125.87 183.11 125.79C182.94 125.71 182.76 125.66 182.56 125.66C181.8 125.66 181.4 126.2 181.36 127.28H183.74Z" fill="#231F20"></path><path d="M188.32 125.95C188.25 125.92 188.17 125.91 188.09 125.91C187.76 125.91 187.47 126.04 187.22 126.29C187.1 126.41 187.02 126.52 186.98 126.63C186.94 126.74 186.92 126.9 186.92 127.12V130.37H186.11V126.36C186.11 126.02 186.08 125.76 186.03 125.58C185.98 125.4 185.94 125.29 185.93 125.26L186.74 125.04C186.74 125.04 186.8 125.18 186.85 125.35C186.9 125.51 186.92 125.69 186.91 125.89C187.1 125.63 187.32 125.42 187.58 125.26C187.84 125.1 188.1 125.03 188.37 125.03C188.43 125.03 188.49 125.03 188.55 125.05C188.6 125.06 188.64 125.08 188.65 125.08" fill="#231F20"></path><path d="M190.78 123.56C190.78 123.74 190.72 123.89 190.6 124.01C190.48 124.13 190.33 124.19 190.15 124.19C189.97 124.19 189.82 124.13 189.7 124.01C189.58 123.89 189.52 123.74 189.52 123.57C189.52 123.4 189.58 123.24 189.7 123.11C189.82 122.98 189.97 122.92 190.15 122.92C190.33 122.92 190.48 122.98 190.6 123.1C190.72 123.22 190.78 123.37 190.78 123.55M189.71 130.35V125.18L190.55 125.04V130.35H189.71Z" fill="#231F20"></path><path d="M195.82 129.79C195.58 130.03 195.33 130.21 195.09 130.32C194.85 130.43 194.56 130.48 194.23 130.48C193.49 130.48 192.93 130.22 192.57 129.7C192.4 129.45 192.27 129.18 192.19 128.88C192.11 128.58 192.07 128.24 192.07 127.85C192.07 127.28 192.14 126.82 192.29 126.48C192.44 126.14 192.63 125.86 192.85 125.64C193.25 125.24 193.72 125.03 194.26 125.03C194.59 125.03 194.86 125.09 195.07 125.2C195.28 125.31 195.49 125.44 195.68 125.6L195.23 126.16C195.05 126.01 194.89 125.9 194.75 125.84C194.61 125.78 194.44 125.75 194.24 125.75C194.04 125.75 193.85 125.8 193.67 125.91C193.49 126.02 193.36 126.16 193.26 126.34C193.07 126.7 192.97 127.27 192.97 128.04C192.97 128.63 193.08 129.08 193.3 129.39C193.52 129.7 193.84 129.85 194.25 129.85C194.66 129.85 195.05 129.66 195.37 129.29" fill="#231F20"></path><path d="M200.83 130.56C200.65 130.5 200.5 130.41 200.38 130.27C200.26 130.13 200.17 129.98 200.12 129.79C199.87 130.04 199.63 130.22 199.41 130.33C199.18 130.44 198.92 130.49 198.62 130.49C198.3 130.49 198.03 130.44 197.82 130.35C197.6 130.26 197.43 130.14 197.3 130.01C197.17 129.87 197.08 129.71 197.03 129.54C196.98 129.36 196.95 129.19 196.95 129.01C196.95 128.42 197.19 127.96 197.67 127.63C198.15 127.3 198.83 127.14 199.7 127.14H199.86C199.92 127.14 199.99 127.14 200.07 127.15V126.78C200.07 126.55 200.07 126.38 200.04 126.26C200.01 126.14 199.98 126.05 199.9 125.96C199.82 125.86 199.72 125.79 199.61 125.75C199.5 125.7 199.36 125.68 199.2 125.68C199.05 125.68 198.9 125.7 198.74 125.73C198.58 125.76 198.43 125.81 198.28 125.87C198.13 125.93 197.99 125.99 197.86 126.07C197.73 126.14 197.63 126.22 197.54 126.29L197.13 125.71C197.83 125.24 198.55 125.01 199.31 125.01C200.07 125.01 200.53 125.28 200.75 125.82C200.81 125.96 200.84 126.13 200.85 126.32C200.86 126.52 200.87 126.73 200.86 126.97L200.82 128.68C200.82 128.89 200.82 129.06 200.82 129.2C200.82 129.34 200.85 129.46 200.88 129.55C200.91 129.64 200.95 129.72 201.01 129.78C201.06 129.84 201.14 129.9 201.24 129.95M200.04 127.7C199.98 127.7 199.92 127.69 199.84 127.69C199.76 127.69 199.69 127.69 199.64 127.69C199.31 127.69 199.03 127.72 198.81 127.77C198.58 127.83 198.4 127.91 198.26 128.01C198.12 128.11 198.02 128.24 197.96 128.4C197.9 128.56 197.87 128.73 197.87 128.93C197.87 129.56 198.17 129.88 198.77 129.88C199.03 129.88 199.28 129.81 199.51 129.66C199.74 129.51 199.91 129.31 200.03 129.07L200.06 127.71L200.04 127.7Z" fill="#231F20"></path><path d="M205.69 130.36V126.84C205.69 126.7 205.69 126.59 205.69 126.5C205.69 126.41 205.67 126.33 205.66 126.27C205.65 126.21 205.63 126.15 205.6 126.11C205.58 126.06 205.55 126.02 205.51 125.98C205.38 125.83 205.19 125.76 204.94 125.76C204.83 125.76 204.72 125.78 204.59 125.82C204.46 125.86 204.33 125.91 204.2 125.98C204.07 126.05 203.94 126.12 203.82 126.21C203.7 126.3 203.59 126.4 203.5 126.49V130.36H202.71V126.35C202.71 126.02 202.68 125.76 202.63 125.58C202.57 125.4 202.54 125.29 202.52 125.26L203.31 125.04C203.31 125.04 203.37 125.17 203.42 125.33C203.47 125.49 203.5 125.66 203.5 125.85C204.04 125.31 204.58 125.05 205.14 125.05C205.43 125.05 205.68 125.12 205.91 125.26C206.14 125.4 206.31 125.58 206.41 125.81C206.49 126 206.54 126.2 206.54 126.42V130.36" fill="#231F20"></path><path d="M214.79 130.36L214.11 128.16H211.44L210.75 130.36H209.88L212.27 123.2H213.39L215.76 130.36M212.8 123.95L211.67 127.46H213.89L212.79 123.95H212.8Z" fill="#231F20"></path><path d="M220.59 128.82C220.59 129.07 220.54 129.3 220.45 129.51C220.36 129.72 220.22 129.9 220.05 130.05C219.88 130.2 219.67 130.32 219.43 130.4C219.19 130.48 218.92 130.53 218.63 130.53C218.3 130.53 217.96 130.48 217.62 130.39C217.28 130.3 216.98 130.17 216.72 130.01L217.03 129.4C217.57 129.73 218.11 129.89 218.68 129.89C219 129.89 219.26 129.81 219.45 129.65C219.64 129.49 219.74 129.27 219.74 128.99C219.74 128.75 219.67 128.57 219.54 128.43C219.41 128.29 219.19 128.19 218.89 128.13L218.24 128C217.81 127.91 217.48 127.74 217.26 127.49C217.04 127.24 216.93 126.93 216.93 126.57C216.93 126.33 216.97 126.12 217.07 125.92C217.16 125.73 217.29 125.56 217.45 125.42C217.61 125.28 217.81 125.17 218.03 125.09C218.26 125.01 218.5 124.97 218.78 124.97C219.06 124.97 219.33 125.01 219.61 125.08C219.89 125.16 220.14 125.26 220.37 125.38L220.07 125.98C219.84 125.87 219.62 125.78 219.42 125.71C219.21 125.64 219 125.61 218.77 125.61C218.47 125.61 218.23 125.69 218.06 125.84C217.88 126 217.79 126.2 217.79 126.46C217.79 126.66 217.85 126.82 217.96 126.94C218.07 127.06 218.27 127.15 218.54 127.21L219.23 127.36C220.16 127.56 220.62 128.04 220.62 128.81" fill="#231F20"></path><path d="M225.52 128.82C225.52 129.07 225.47 129.3 225.38 129.51C225.29 129.72 225.15 129.9 224.98 130.05C224.81 130.2 224.6 130.32 224.36 130.4C224.12 130.48 223.85 130.53 223.56 130.53C223.23 130.53 222.89 130.48 222.55 130.39C222.21 130.3 221.91 130.17 221.65 130.01L221.96 129.4C222.5 129.73 223.05 129.89 223.61 129.89C223.93 129.89 224.19 129.81 224.38 129.65C224.57 129.49 224.67 129.27 224.67 128.99C224.67 128.75 224.6 128.57 224.47 128.43C224.34 128.29 224.12 128.19 223.82 128.13L223.17 128C222.74 127.91 222.41 127.74 222.19 127.49C221.97 127.24 221.86 126.93 221.86 126.57C221.86 126.33 221.91 126.12 222 125.92C222.09 125.73 222.22 125.56 222.38 125.42C222.54 125.28 222.74 125.17 222.96 125.09C223.19 125.01 223.43 124.97 223.71 124.97C223.99 124.97 224.26 125.01 224.54 125.08C224.82 125.16 225.07 125.26 225.3 125.38L225 125.98C224.77 125.87 224.55 125.78 224.35 125.71C224.14 125.64 223.93 125.61 223.7 125.61C223.4 125.61 223.16 125.69 222.99 125.84C222.81 126 222.72 126.2 222.72 126.46C222.72 126.66 222.78 126.82 222.89 126.94C223 127.06 223.2 127.15 223.47 127.21L224.16 127.36C225.09 127.56 225.55 128.04 225.55 128.81" fill="#231F20"></path><path d="M231.19 127.85C231.19 128.28 231.13 128.66 231.02 128.99C230.91 129.32 230.75 129.6 230.56 129.82C230.36 130.04 230.13 130.21 229.86 130.33C229.59 130.44 229.29 130.5 228.96 130.5C228.24 130.5 227.69 130.25 227.3 129.76C226.91 129.27 226.72 128.59 226.72 127.74C226.72 126.89 226.92 126.23 227.31 125.74C227.7 125.26 228.24 125.02 228.93 125.02C229.37 125.02 229.73 125.11 230.01 125.28C230.3 125.45 230.53 125.67 230.71 125.93C230.87 126.17 230.99 126.44 231.07 126.75C231.15 127.06 231.19 127.43 231.19 127.86M230.26 127.92C230.26 127.2 230.18 126.68 230.02 126.36C229.91 126.13 229.75 125.96 229.54 125.85C229.33 125.74 229.12 125.69 228.91 125.69C228.68 125.69 228.47 125.74 228.27 125.84C228.08 125.94 227.93 126.08 227.84 126.25C227.76 126.41 227.69 126.6 227.65 126.81C227.61 127.03 227.59 127.29 227.59 127.6C227.59 127.97 227.62 128.3 227.68 128.61C227.74 128.91 227.82 129.14 227.92 129.3C228.02 129.46 228.16 129.59 228.35 129.68C228.54 129.77 228.75 129.82 228.97 129.82C229.24 129.82 229.48 129.75 229.67 129.62C229.86 129.49 230.01 129.29 230.1 129.04C230.16 128.88 230.2 128.72 230.22 128.55C230.24 128.38 230.26 128.17 230.26 127.91V127.92Z" fill="#231F20"></path><path d="M236.22 129.79C235.98 130.03 235.73 130.21 235.49 130.32C235.25 130.43 234.96 130.48 234.63 130.48C233.89 130.48 233.33 130.22 232.97 129.7C232.8 129.45 232.67 129.18 232.59 128.88C232.51 128.58 232.47 128.24 232.47 127.85C232.47 127.28 232.54 126.82 232.69 126.48C232.84 126.14 233.03 125.86 233.25 125.64C233.65 125.24 234.12 125.03 234.66 125.03C234.99 125.03 235.26 125.09 235.47 125.2C235.68 125.31 235.89 125.44 236.07 125.6L235.62 126.16C235.44 126.01 235.28 125.9 235.14 125.84C235 125.78 234.83 125.75 234.63 125.75C234.43 125.75 234.24 125.8 234.06 125.91C233.88 126.02 233.75 126.16 233.65 126.34C233.46 126.7 233.36 127.27 233.36 128.04C233.36 128.63 233.47 129.08 233.69 129.39C233.91 129.7 234.23 129.85 234.64 129.85C235.05 129.85 235.44 129.66 235.76 129.29" fill="#231F20"></path><path d="M238.65 123.56C238.65 123.74 238.59 123.89 238.47 124.01C238.35 124.13 238.2 124.19 238.02 124.19C237.84 124.19 237.69 124.13 237.57 124.01C237.45 123.89 237.39 123.74 237.39 123.57C237.39 123.4 237.45 123.24 237.57 123.11C237.69 122.98 237.84 122.92 238.02 122.92C238.2 122.92 238.35 122.98 238.47 123.1C238.59 123.22 238.65 123.37 238.65 123.55M237.57 130.35V125.18L238.42 125.04V130.35H237.57Z" fill="#231F20"></path><path d="M243.78 130.56C243.6 130.5 243.45 130.41 243.33 130.27C243.21 130.13 243.12 129.98 243.07 129.79C242.82 130.04 242.58 130.22 242.36 130.33C242.13 130.44 241.87 130.49 241.57 130.49C241.25 130.49 240.98 130.44 240.77 130.35C240.55 130.26 240.38 130.14 240.25 130.01C240.12 129.87 240.03 129.71 239.98 129.54C239.93 129.36 239.9 129.19 239.9 129.01C239.9 128.42 240.14 127.96 240.62 127.63C241.1 127.3 241.78 127.14 242.65 127.14H242.81C242.86 127.14 242.93 127.14 243.02 127.15V126.78C243.02 126.55 243.02 126.38 242.99 126.26C242.97 126.15 242.92 126.05 242.85 125.96C242.77 125.86 242.67 125.79 242.56 125.75C242.45 125.7 242.31 125.68 242.15 125.68C242 125.68 241.85 125.7 241.69 125.73C241.53 125.76 241.38 125.81 241.23 125.87C241.08 125.93 240.94 125.99 240.81 126.07C240.68 126.14 240.58 126.22 240.49 126.29L240.08 125.71C240.78 125.24 241.5 125.01 242.26 125.01C243.02 125.01 243.48 125.28 243.7 125.82C243.76 125.96 243.79 126.13 243.8 126.32C243.81 126.52 243.82 126.73 243.81 126.97L243.77 128.68C243.77 128.89 243.77 129.06 243.77 129.2C243.77 129.34 243.8 129.46 243.83 129.55C243.86 129.64 243.9 129.72 243.96 129.78C244.01 129.84 244.09 129.9 244.19 129.95M242.99 127.7C242.93 127.7 242.87 127.69 242.79 127.69C242.71 127.69 242.64 127.69 242.59 127.69C242.26 127.69 241.98 127.72 241.76 127.77C241.53 127.83 241.35 127.91 241.21 128.01C241.07 128.11 240.97 128.24 240.91 128.4C240.85 128.56 240.82 128.73 240.82 128.93C240.82 129.56 241.12 129.88 241.72 129.88C241.98 129.88 242.23 129.81 242.46 129.66C242.69 129.51 242.86 129.31 242.98 129.07L243.01 127.71L242.99 127.7Z" fill="#231F20"></path><path d="M247.62 125.79H246.54V129.14C246.54 129.43 246.59 129.63 246.68 129.75C246.77 129.86 246.95 129.92 247.21 129.92C247.33 129.92 247.42 129.92 247.5 129.89C247.57 129.87 247.65 129.85 247.72 129.81L247.83 130.33C247.57 130.47 247.26 130.54 246.91 130.54C246.77 130.54 246.65 130.53 246.54 130.5C246.43 130.47 246.33 130.44 246.23 130.39C246.05 130.3 245.92 130.17 245.84 130C245.76 129.83 245.72 129.62 245.72 129.35V125.78H245.04V125.16H245.72C245.72 125.05 245.72 124.92 245.73 124.79C245.73 124.66 245.74 124.52 245.76 124.4C245.77 124.27 245.78 124.16 245.79 124.06C245.79 123.96 245.8 123.89 245.81 123.85L246.66 123.66C246.66 123.66 246.65 123.77 246.63 123.88C246.62 123.98 246.61 124.11 246.6 124.25C246.59 124.39 246.58 124.54 246.57 124.7C246.56 124.86 246.55 125.02 246.55 125.17H247.85" fill="#231F20"></path><path d="M250.17 123.56C250.17 123.74 250.11 123.89 249.99 124.01C249.87 124.13 249.72 124.19 249.54 124.19C249.36 124.19 249.21 124.13 249.09 124.01C248.97 123.89 248.91 123.74 248.91 123.57C248.91 123.4 248.97 123.24 249.09 123.11C249.21 122.98 249.36 122.92 249.54 122.92C249.72 122.92 249.87 122.98 249.99 123.1C250.11 123.22 250.17 123.37 250.17 123.55M249.09 130.35V125.18L249.94 125.04V130.35H249.09Z" fill="#231F20"></path><path d="M255.94 127.85C255.94 128.28 255.88 128.66 255.77 128.99C255.66 129.32 255.5 129.6 255.31 129.82C255.11 130.04 254.88 130.21 254.61 130.33C254.34 130.44 254.04 130.5 253.71 130.5C252.99 130.5 252.44 130.25 252.05 129.76C251.66 129.27 251.47 128.59 251.47 127.74C251.47 126.89 251.67 126.23 252.06 125.74C252.45 125.26 252.99 125.02 253.68 125.02C254.12 125.02 254.48 125.11 254.77 125.28C255.06 125.45 255.29 125.67 255.47 125.93C255.63 126.17 255.75 126.44 255.83 126.75C255.91 127.06 255.95 127.43 255.95 127.86M255.02 127.92C255.02 127.2 254.94 126.68 254.78 126.36C254.67 126.13 254.51 125.96 254.31 125.85C254.1 125.74 253.89 125.69 253.68 125.69C253.45 125.69 253.24 125.74 253.04 125.84C252.85 125.94 252.7 126.08 252.61 126.25C252.53 126.41 252.46 126.6 252.42 126.81C252.38 127.03 252.36 127.29 252.36 127.6C252.36 127.97 252.39 128.3 252.45 128.61C252.51 128.91 252.59 129.14 252.68 129.3C252.78 129.46 252.92 129.59 253.11 129.68C253.3 129.77 253.51 129.82 253.73 129.82C254 129.82 254.23 129.75 254.43 129.62C254.62 129.49 254.77 129.29 254.86 129.04C254.92 128.88 254.95 128.72 254.98 128.55C255 128.38 255.02 128.17 255.02 127.91V127.92Z" fill="#231F20"></path><path d="M260.45 130.36V126.84C260.45 126.7 260.45 126.59 260.44 126.5C260.44 126.41 260.42 126.33 260.41 126.27C260.4 126.21 260.38 126.15 260.35 126.11C260.32 126.06 260.3 126.02 260.26 125.98C260.13 125.83 259.94 125.76 259.69 125.76C259.59 125.76 259.47 125.78 259.34 125.82C259.21 125.86 259.08 125.91 258.95 125.98C258.82 126.05 258.69 126.12 258.57 126.21C258.44 126.3 258.34 126.4 258.25 126.49V130.36H257.46V126.35C257.46 126.02 257.43 125.76 257.38 125.58C257.32 125.4 257.29 125.29 257.27 125.26L258.06 125.04C258.06 125.04 258.12 125.17 258.17 125.33C258.22 125.49 258.25 125.66 258.25 125.85C258.79 125.31 259.33 125.05 259.89 125.05C260.18 125.05 260.43 125.12 260.66 125.26C260.89 125.4 261.06 125.58 261.16 125.81C261.24 126 261.29 126.2 261.29 126.42V130.36" fill="#231F20"></path><path d="M269.65 127.85C269.65 128.28 269.59 128.66 269.48 128.99C269.37 129.32 269.21 129.6 269.01 129.82C268.81 130.04 268.58 130.21 268.31 130.33C268.04 130.44 267.74 130.5 267.41 130.5C266.69 130.5 266.14 130.25 265.75 129.76C265.36 129.27 265.17 128.59 265.17 127.74C265.17 126.89 265.37 126.23 265.76 125.74C266.15 125.26 266.69 125.02 267.38 125.02C267.82 125.02 268.18 125.11 268.47 125.28C268.76 125.45 268.99 125.67 269.17 125.93C269.33 126.17 269.45 126.44 269.53 126.75C269.61 127.06 269.65 127.43 269.65 127.86M268.72 127.92C268.72 127.2 268.64 126.68 268.48 126.36C268.37 126.13 268.21 125.96 268 125.85C267.8 125.74 267.59 125.69 267.37 125.69C267.14 125.69 266.93 125.74 266.73 125.84C266.54 125.94 266.39 126.08 266.3 126.25C266.22 126.41 266.15 126.6 266.11 126.81C266.07 127.03 266.05 127.29 266.05 127.6C266.05 127.97 266.08 128.3 266.14 128.61C266.2 128.91 266.28 129.14 266.37 129.3C266.47 129.46 266.61 129.59 266.8 129.68C266.99 129.77 267.2 129.82 267.42 129.82C267.69 129.82 267.92 129.75 268.12 129.62C268.31 129.49 268.46 129.29 268.55 129.04C268.6 128.88 268.64 128.72 268.67 128.55C268.69 128.38 268.71 128.17 268.71 127.91L268.72 127.92Z" fill="#231F20"></path><path d="M273.53 123.69C273.43 123.63 273.31 123.58 273.18 123.53C273.04 123.48 272.9 123.45 272.76 123.45C272.29 123.45 272.05 123.76 272.05 124.37V125.17H273.49L273.24 125.79H272.05V130.37H271.19V125.79H270.69V125.17H271.19V124.36C271.19 124.17 271.21 124 271.25 123.86C271.29 123.72 271.34 123.6 271.4 123.5C271.46 123.4 271.52 123.32 271.59 123.25C271.66 123.18 271.72 123.13 271.77 123.09C272.01 122.91 272.32 122.82 272.69 122.82C273.15 122.82 273.53 122.92 273.84 123.12" fill="#231F20"></path><path d="M280.26 123.92H277.49V126.26H279.79V126.96H277.49V130.36H276.63V123.21H280.39" fill="#231F20"></path><path d="M281.93 127.9V128.03C281.93 128.27 281.95 128.49 281.98 128.68C282.01 128.87 282.08 129.03 282.17 129.17C282.32 129.39 282.5 129.56 282.73 129.66C282.96 129.76 283.2 129.81 283.47 129.81C283.96 129.81 284.39 129.65 284.74 129.32L285.05 129.84C284.82 130.05 284.55 130.21 284.25 130.32C283.95 130.43 283.63 130.49 283.29 130.49C282.57 130.49 282 130.24 281.6 129.75C281.19 129.26 280.99 128.58 280.99 127.72C280.99 127.28 281.04 126.91 281.14 126.61C281.24 126.31 281.4 126.02 281.62 125.76C282.03 125.28 282.55 125.04 283.18 125.04C283.76 125.04 284.23 125.23 284.59 125.6C284.7 125.72 284.79 125.84 284.87 125.97C284.95 126.1 285.01 126.24 285.05 126.41C285.1 126.58 285.13 126.77 285.15 126.99C285.17 127.21 285.18 127.48 285.18 127.79V127.9M284.31 127.28C284.31 126.99 284.28 126.76 284.24 126.58C284.2 126.4 284.15 126.25 284.07 126.12C283.98 125.98 283.85 125.87 283.68 125.79C283.51 125.71 283.33 125.66 283.13 125.66C282.37 125.66 281.97 126.2 281.93 127.28H284.31Z" fill="#231F20"></path><path d="M288.05 130.35C287.95 130.4 287.86 130.43 287.79 130.44C287.72 130.45 287.63 130.46 287.52 130.46C287.26 130.46 287.06 130.39 286.9 130.24C286.82 130.16 286.75 130.07 286.71 129.95C286.67 129.84 286.65 129.68 286.65 129.5V123.99C286.65 123.68 286.63 123.44 286.6 123.25C286.56 123.07 286.54 122.96 286.53 122.92L287.34 122.76C287.34 122.76 287.38 122.93 287.42 123.14C287.46 123.35 287.48 123.64 287.48 123.99V129.3C287.48 129.5 287.5 129.64 287.54 129.71C287.58 129.78 287.66 129.82 287.77 129.82C287.78 129.82 287.82 129.82 287.87 129.8" fill="#231F20"></path><path d="M290.46 123.56C290.46 123.74 290.4 123.89 290.28 124.01C290.16 124.13 290.01 124.19 289.83 124.19C289.65 124.19 289.5 124.13 289.38 124.01C289.26 123.89 289.2 123.74 289.2 123.57C289.2 123.4 289.26 123.24 289.38 123.11C289.5 122.98 289.65 122.92 289.83 122.92C290.01 122.92 290.16 122.98 290.28 123.1C290.4 123.22 290.46 123.37 290.46 123.55M289.39 130.35V125.18L290.24 125.04V130.35H289.39Z" fill="#231F20"></path><path d="M295.08 130.36V126.84C295.08 126.7 295.08 126.59 295.07 126.5C295.07 126.41 295.05 126.33 295.04 126.27C295.03 126.21 295.01 126.15 294.98 126.11C294.96 126.06 294.93 126.02 294.89 125.98C294.76 125.83 294.57 125.76 294.32 125.76C294.22 125.76 294.1 125.78 293.97 125.82C293.84 125.86 293.71 125.91 293.59 125.98C293.46 126.05 293.33 126.12 293.21 126.21C293.08 126.3 292.98 126.4 292.89 126.49V130.36H292.1V126.35C292.1 126.02 292.07 125.76 292.02 125.58C291.96 125.4 291.93 125.29 291.91 125.26L292.7 125.04C292.7 125.04 292.76 125.17 292.81 125.33C292.86 125.49 292.89 125.66 292.89 125.85C293.43 125.31 293.97 125.05 294.53 125.05C294.82 125.05 295.07 125.12 295.3 125.26C295.53 125.4 295.7 125.58 295.8 125.81C295.88 126 295.93 126.2 295.93 126.42V130.36" fill="#231F20"></path><path d="M298.4 127.9V128.03C298.4 128.27 298.42 128.49 298.45 128.68C298.48 128.87 298.55 129.03 298.64 129.17C298.79 129.39 298.97 129.56 299.2 129.66C299.43 129.76 299.67 129.81 299.94 129.81C300.43 129.81 300.86 129.65 301.21 129.32L301.52 129.84C301.29 130.05 301.02 130.21 300.72 130.32C300.42 130.43 300.1 130.49 299.76 130.49C299.04 130.49 298.47 130.24 298.07 129.75C297.66 129.26 297.46 128.58 297.46 127.72C297.46 127.28 297.51 126.91 297.61 126.61C297.71 126.31 297.87 126.02 298.09 125.76C298.5 125.28 299.02 125.04 299.64 125.04C300.22 125.04 300.69 125.23 301.05 125.6C301.16 125.72 301.25 125.84 301.33 125.97C301.41 126.1 301.47 126.24 301.51 126.41C301.56 126.58 301.59 126.77 301.61 126.99C301.63 127.21 301.64 127.48 301.64 127.79V127.9M300.77 127.28C300.77 126.99 300.74 126.76 300.7 126.58C300.66 126.4 300.61 126.25 300.53 126.12C300.44 125.98 300.31 125.87 300.14 125.79C299.97 125.71 299.79 125.66 299.59 125.66C298.83 125.66 298.43 126.2 298.39 127.28H300.77Z" fill="#231F20"></path><path d="M309.95 125.25C309.95 125.62 309.9 125.94 309.8 126.22C309.7 126.49 309.54 126.74 309.3 126.95C309.06 127.17 308.8 127.31 308.53 127.39C308.26 127.47 307.94 127.51 307.57 127.51H306.32V130.36H305.49V123.2H307.47C307.86 123.2 308.17 123.22 308.4 123.27C308.63 123.32 308.84 123.41 309.04 123.53C309.65 123.93 309.96 124.5 309.96 125.24M309.01 125.41C309.01 124.89 308.87 124.51 308.59 124.27C308.44 124.15 308.27 124.05 308.06 124C307.85 123.94 307.58 123.92 307.24 123.92H306.33V126.81H307.53C307.84 126.81 308.07 126.78 308.23 126.72C308.39 126.66 308.53 126.56 308.65 126.42C308.89 126.15 309.01 125.81 309.01 125.41Z" fill="#231F20"></path><path d="M313.53 125.95C313.46 125.92 313.38 125.91 313.3 125.91C312.97 125.91 312.68 126.04 312.43 126.29C312.31 126.41 312.23 126.52 312.19 126.63C312.15 126.74 312.13 126.9 312.13 127.12V130.37H311.32V126.36C311.32 126.02 311.29 125.76 311.24 125.58C311.19 125.4 311.15 125.29 311.14 125.26L311.95 125.04C311.95 125.04 312.01 125.18 312.06 125.35C312.11 125.51 312.13 125.69 312.12 125.89C312.31 125.63 312.53 125.42 312.79 125.26C313.05 125.1 313.31 125.03 313.58 125.03C313.64 125.03 313.7 125.03 313.76 125.05C313.82 125.06 313.85 125.08 313.86 125.08" fill="#231F20"></path><path d="M318.41 130.56C318.23 130.5 318.08 130.41 317.96 130.27C317.84 130.13 317.75 129.98 317.7 129.79C317.45 130.04 317.21 130.22 316.99 130.33C316.76 130.44 316.5 130.49 316.2 130.49C315.88 130.49 315.61 130.44 315.4 130.35C315.18 130.26 315.01 130.14 314.88 130.01C314.75 129.87 314.66 129.71 314.61 129.54C314.56 129.36 314.53 129.19 314.53 129.01C314.53 128.42 314.77 127.96 315.25 127.63C315.73 127.3 316.41 127.14 317.28 127.14H317.44C317.49 127.14 317.56 127.14 317.65 127.15V126.78C317.65 126.55 317.65 126.38 317.62 126.26C317.6 126.15 317.55 126.05 317.48 125.96C317.4 125.86 317.3 125.79 317.19 125.75C317.08 125.7 316.94 125.68 316.78 125.68C316.63 125.68 316.48 125.7 316.32 125.73C316.16 125.76 316.01 125.81 315.86 125.87C315.71 125.93 315.57 125.99 315.44 126.07C315.31 126.14 315.21 126.22 315.12 126.29L314.71 125.71C315.41 125.24 316.13 125.01 316.89 125.01C317.65 125.01 318.11 125.28 318.33 125.82C318.39 125.96 318.42 126.13 318.43 126.32C318.44 126.52 318.45 126.73 318.44 126.97L318.4 128.68C318.4 128.89 318.4 129.06 318.4 129.2C318.4 129.34 318.43 129.46 318.46 129.55C318.49 129.64 318.53 129.72 318.59 129.78C318.64 129.84 318.72 129.9 318.82 129.95M317.62 127.7C317.56 127.7 317.5 127.69 317.42 127.69C317.34 127.69 317.27 127.69 317.22 127.69C316.89 127.69 316.61 127.72 316.39 127.77C316.16 127.83 315.98 127.91 315.84 128.01C315.7 128.11 315.6 128.24 315.54 128.4C315.48 128.56 315.45 128.73 315.45 128.93C315.45 129.56 315.75 129.88 316.35 129.88C316.61 129.88 316.86 129.81 317.09 129.66C317.32 129.51 317.49 129.31 317.61 129.07L317.64 127.71L317.62 127.7Z" fill="#231F20"></path><path d="M323.72 129.79C323.48 130.03 323.23 130.21 322.99 130.32C322.75 130.43 322.46 130.48 322.13 130.48C321.39 130.48 320.83 130.22 320.47 129.7C320.3 129.45 320.17 129.18 320.09 128.88C320.01 128.58 319.97 128.24 319.97 127.85C319.97 127.28 320.04 126.82 320.19 126.48C320.34 126.14 320.53 125.86 320.75 125.64C321.15 125.24 321.62 125.03 322.16 125.03C322.49 125.03 322.76 125.09 322.97 125.2C323.18 125.31 323.39 125.44 323.57 125.6L323.12 126.16C322.94 126.01 322.78 125.9 322.64 125.84C322.5 125.78 322.33 125.75 322.13 125.75C321.93 125.75 321.74 125.8 321.56 125.91C321.38 126.02 321.25 126.16 321.15 126.34C320.95 126.7 320.86 127.27 320.86 128.04C320.86 128.63 320.97 129.08 321.19 129.39C321.41 129.7 321.73 129.85 322.14 129.85C322.55 129.85 322.94 129.66 323.26 129.29" fill="#231F20"></path><path d="M327.23 125.79H326.15V129.14C326.15 129.43 326.2 129.63 326.29 129.75C326.38 129.86 326.56 129.92 326.82 129.92C326.94 129.92 327.03 129.92 327.11 129.89C327.18 129.87 327.26 129.85 327.33 129.81L327.44 130.33C327.18 130.47 326.87 130.54 326.52 130.54C326.38 130.54 326.26 130.53 326.15 130.5C326.04 130.47 325.94 130.44 325.84 130.39C325.66 130.3 325.53 130.17 325.45 130C325.37 129.83 325.33 129.62 325.33 129.35V125.78H324.65V125.16H325.33C325.33 125.05 325.33 124.92 325.34 124.79C325.34 124.66 325.36 124.52 325.37 124.4C325.38 124.27 325.39 124.16 325.4 124.06C325.4 123.96 325.41 123.89 325.42 123.85L326.28 123.66C326.28 123.66 326.26 123.77 326.25 123.88C326.24 123.98 326.23 124.11 326.22 124.25C326.21 124.39 326.2 124.54 326.19 124.7C326.18 124.86 326.17 125.02 326.17 125.17H327.47" fill="#231F20"></path><path d="M329.78 123.56C329.78 123.74 329.72 123.89 329.6 124.01C329.48 124.13 329.33 124.19 329.15 124.19C328.97 124.19 328.82 124.13 328.7 124.01C328.58 123.89 328.52 123.74 328.52 123.57C328.52 123.4 328.58 123.24 328.7 123.11C328.82 122.98 328.97 122.92 329.15 122.92C329.33 122.92 329.48 122.98 329.6 123.1C329.72 123.22 329.78 123.37 329.78 123.55M328.71 130.35V125.18L329.56 125.04V130.35H328.71Z" fill="#231F20"></path><path d="M333.39 125.79H332.31V129.14C332.31 129.43 332.36 129.63 332.45 129.75C332.54 129.86 332.72 129.92 332.98 129.92C333.1 129.92 333.19 129.92 333.27 129.89C333.34 129.87 333.42 129.85 333.49 129.81L333.6 130.33C333.34 130.47 333.03 130.54 332.68 130.54C332.54 130.54 332.42 130.53 332.31 130.5C332.2 130.47 332.1 130.44 332 130.39C331.82 130.3 331.69 130.17 331.61 130C331.53 129.83 331.49 129.62 331.49 129.35V125.78H330.81V125.16H331.49C331.49 125.05 331.49 124.92 331.5 124.79C331.5 124.66 331.52 124.52 331.53 124.4C331.54 124.27 331.55 124.16 331.56 124.06C331.56 123.96 331.57 123.89 331.58 123.85L332.43 123.66C332.43 123.66 332.42 123.77 332.4 123.88C332.39 123.98 332.38 124.11 332.37 124.25C332.36 124.39 332.35 124.54 332.34 124.7C332.33 124.86 332.32 125.02 332.32 125.17H333.62" fill="#231F20"></path><path d="M335.94 123.56C335.94 123.74 335.88 123.89 335.76 124.01C335.64 124.13 335.49 124.19 335.31 124.19C335.13 124.19 334.98 124.13 334.86 124.01C334.74 123.89 334.68 123.74 334.68 123.57C334.68 123.4 334.74 123.24 334.86 123.11C334.98 122.98 335.13 122.92 335.31 122.92C335.49 122.92 335.64 122.98 335.76 123.1C335.88 123.22 335.94 123.37 335.94 123.55M334.87 130.35V125.18L335.72 125.04V130.35H334.87Z" fill="#231F20"></path><path d="M341.71 127.85C341.71 128.28 341.65 128.66 341.54 128.99C341.43 129.32 341.27 129.6 341.08 129.82C340.88 130.04 340.65 130.21 340.38 130.33C340.11 130.44 339.81 130.5 339.48 130.5C338.76 130.5 338.21 130.25 337.82 129.76C337.43 129.27 337.24 128.59 337.24 127.74C337.24 126.89 337.44 126.23 337.83 125.74C338.22 125.26 338.76 125.02 339.45 125.02C339.89 125.02 340.25 125.11 340.54 125.28C340.83 125.45 341.06 125.67 341.24 125.93C341.4 126.17 341.52 126.44 341.6 126.75C341.68 127.06 341.72 127.43 341.72 127.86M340.79 127.92C340.79 127.2 340.71 126.68 340.55 126.36C340.44 126.13 340.28 125.96 340.07 125.85C339.86 125.74 339.65 125.69 339.44 125.69C339.21 125.69 339 125.74 338.8 125.84C338.61 125.94 338.46 126.08 338.37 126.25C338.29 126.41 338.22 126.6 338.18 126.81C338.14 127.03 338.12 127.29 338.12 127.6C338.12 127.97 338.15 128.3 338.21 128.61C338.27 128.91 338.35 129.14 338.45 129.3C338.55 129.46 338.69 129.59 338.88 129.68C339.07 129.77 339.28 129.82 339.5 129.82C339.77 129.82 340 129.75 340.2 129.62C340.39 129.49 340.54 129.29 340.63 129.04C340.69 128.88 340.73 128.72 340.75 128.55C340.77 128.38 340.79 128.17 340.79 127.91V127.92Z" fill="#231F20"></path><path d="M346.22 130.36V126.84C346.22 126.7 346.22 126.59 346.21 126.5C346.21 126.41 346.19 126.33 346.18 126.27C346.17 126.21 346.15 126.15 346.12 126.11C346.09 126.06 346.07 126.02 346.03 125.98C345.9 125.83 345.71 125.76 345.46 125.76C345.36 125.76 345.24 125.78 345.11 125.82C344.98 125.86 344.85 125.91 344.72 125.98C344.59 126.05 344.46 126.12 344.34 126.21C344.21 126.3 344.11 126.4 344.02 126.49V130.36H343.23V126.35C343.23 126.02 343.2 125.76 343.15 125.58C343.09 125.4 343.06 125.29 343.04 125.26L343.83 125.04C343.83 125.04 343.89 125.17 343.94 125.33C343.99 125.49 344.02 125.66 344.02 125.85C344.56 125.31 345.1 125.05 345.66 125.05C345.95 125.05 346.2 125.12 346.43 125.26C346.66 125.4 346.83 125.58 346.93 125.81C347.01 126 347.06 126.2 347.06 126.42V130.36" fill="#231F20"></path><path d="M349.54 127.9V128.03C349.54 128.27 349.56 128.49 349.59 128.68C349.62 128.87 349.69 129.03 349.78 129.17C349.93 129.39 350.11 129.56 350.34 129.66C350.57 129.76 350.81 129.81 351.08 129.81C351.57 129.81 352 129.65 352.35 129.32L352.66 129.84C352.43 130.05 352.16 130.21 351.86 130.32C351.56 130.43 351.24 130.49 350.91 130.49C350.19 130.49 349.62 130.24 349.22 129.75C348.81 129.26 348.61 128.58 348.61 127.72C348.61 127.28 348.66 126.91 348.76 126.61C348.86 126.31 349.02 126.02 349.24 125.76C349.65 125.28 350.17 125.04 350.79 125.04C351.37 125.04 351.84 125.23 352.2 125.6C352.31 125.72 352.41 125.84 352.48 125.97C352.56 126.1 352.62 126.24 352.66 126.41C352.7 126.58 352.74 126.77 352.76 126.99C352.78 127.21 352.79 127.48 352.79 127.79V127.9M351.92 127.28C351.92 126.99 351.89 126.76 351.85 126.58C351.81 126.4 351.75 126.25 351.68 126.12C351.59 125.98 351.46 125.87 351.29 125.79C351.12 125.71 350.94 125.66 350.74 125.66C349.98 125.66 349.58 126.2 349.54 127.28H351.92Z" fill="#231F20"></path><path d="M356.49 125.95C356.42 125.92 356.34 125.91 356.26 125.91C355.93 125.91 355.64 126.04 355.39 126.29C355.27 126.41 355.19 126.52 355.15 126.63C355.11 126.74 355.09 126.9 355.09 127.12V130.37H354.28V126.36C354.28 126.02 354.25 125.76 354.2 125.58C354.15 125.4 354.11 125.29 354.1 125.26L354.91 125.04C354.91 125.04 354.97 125.18 355.02 125.35C355.07 125.51 355.09 125.69 355.08 125.89C355.27 125.63 355.49 125.42 355.75 125.26C356.01 125.1 356.27 125.03 356.54 125.03C356.6 125.03 356.66 125.03 356.72 125.05C356.78 125.06 356.81 125.08 356.82 125.08" fill="#231F20"></path><path d="M361.24 128.82C361.24 129.07 361.19 129.3 361.1 129.51C361.01 129.72 360.87 129.9 360.7 130.05C360.53 130.2 360.32 130.32 360.08 130.4C359.84 130.48 359.57 130.53 359.28 130.53C358.95 130.53 358.61 130.48 358.27 130.39C357.93 130.3 357.63 130.17 357.37 130.01L357.68 129.4C358.22 129.73 358.77 129.89 359.33 129.89C359.65 129.89 359.91 129.81 360.1 129.65C360.29 129.49 360.39 129.27 360.39 128.99C360.39 128.75 360.32 128.57 360.19 128.43C360.05 128.29 359.84 128.19 359.54 128.13L358.89 128C358.46 127.91 358.13 127.74 357.91 127.49C357.69 127.24 357.58 126.93 357.58 126.57C357.58 126.33 357.62 126.12 357.72 125.92C357.81 125.73 357.94 125.56 358.1 125.42C358.26 125.28 358.46 125.17 358.68 125.09C358.91 125.01 359.15 124.97 359.43 124.97C359.71 124.97 359.98 125.01 360.26 125.08C360.54 125.16 360.79 125.26 361.02 125.38L360.72 125.98C360.49 125.87 360.27 125.78 360.07 125.71C359.87 125.64 359.65 125.61 359.42 125.61C359.12 125.61 358.88 125.69 358.71 125.84C358.53 126 358.44 126.2 358.44 126.46C358.44 126.66 358.5 126.82 358.61 126.94C358.72 127.06 358.92 127.15 359.19 127.21L359.88 127.36C360.81 127.56 361.27 128.04 361.27 128.81" fill="#231F20"></path><path d="M68.4199 16H332.56C368.72 16 398.03 45.31 398.03 81.47C398.03 117.63 368.72 146.94 332.56 146.94H94.2899" stroke="#53C1B2" stroke-width="2.04" stroke-linejoin="round"></path><path d="M395.99 31.77C399.32 31.77 402.01 34.46 402.01 37.79C402.01 41.12 399.31 43.81 395.99 43.81C392.67 43.81 389.97 41.12 389.97 37.79C389.97 34.46 392.67 31.77 395.99 31.77ZM400.94 37.79C400.94 35 398.73 32.74 395.99 32.74C393.25 32.74 391.04 35 391.04 37.79C391.04 40.58 393.25 42.84 395.99 42.84C398.73 42.84 400.94 40.58 400.94 37.79ZM393.59 34.3H396.32C397.88 34.3 398.72 34.97 398.72 36.36C398.72 37.61 397.89 38.19 396.82 38.31L398.83 41.35H397.76L395.81 38.4H394.66V41.35H393.59V34.3ZM395.81 37.42C396.78 37.42 397.64 37.37 397.64 36.32C397.64 35.39 396.86 35.28 396.12 35.28H394.66V37.42H395.81Z" fill="#231F20"></path><path d="M301.258 100.294H310.205C310.205 101.214 310.166 102.049 310.09 102.801C310.013 103.552 309.86 104.25 309.63 104.894C309.308 105.798 308.871 106.603 308.319 107.309C307.767 107.999 307.115 108.581 306.364 109.057C305.628 109.517 304.815 109.869 303.926 110.115C303.036 110.36 302.101 110.483 301.12 110.483C299.77 110.483 298.536 110.26 297.417 109.816C296.313 109.371 295.362 108.75 294.565 107.953C293.767 107.14 293.146 106.174 292.702 105.055C292.257 103.92 292.035 102.67 292.035 101.306C292.035 99.9563 292.249 98.722 292.679 97.6027C293.123 96.468 293.744 95.502 294.542 94.7047C295.354 93.9073 296.328 93.2863 297.463 92.8417C298.597 92.397 299.862 92.1747 301.258 92.1747C303.067 92.1747 304.654 92.5657 306.019 93.3477C307.383 94.1297 308.464 95.341 309.262 96.9817L304.984 98.7527C304.585 97.802 304.064 97.1197 303.42 96.7057C302.791 96.2917 302.07 96.0847 301.258 96.0847C300.583 96.0847 299.97 96.215 299.418 96.4757C298.866 96.721 298.39 97.0813 297.992 97.5567C297.608 98.0167 297.302 98.5763 297.072 99.2357C296.857 99.895 296.75 100.631 296.75 101.444C296.75 102.18 296.842 102.862 297.026 103.491C297.225 104.119 297.516 104.664 297.9 105.124C298.283 105.584 298.758 105.944 299.326 106.205C299.893 106.45 300.552 106.573 301.304 106.573C301.748 106.573 302.178 106.527 302.592 106.435C303.006 106.327 303.374 106.166 303.696 105.952C304.033 105.722 304.309 105.43 304.524 105.078C304.738 104.725 304.884 104.296 304.961 103.79H301.258V100.294Z" fill="#EFBE56"></path><path d="M316.596 104.043C316.596 104.441 316.665 104.809 316.803 105.147C316.956 105.469 317.148 105.752 317.378 105.998C317.623 106.243 317.907 106.435 318.229 106.573C318.566 106.711 318.919 106.78 319.287 106.78C319.655 106.78 320 106.711 320.322 106.573C320.659 106.435 320.943 106.243 321.173 105.998C321.418 105.752 321.61 105.469 321.748 105.147C321.901 104.809 321.978 104.449 321.978 104.066C321.978 103.698 321.901 103.353 321.748 103.031C321.61 102.693 321.418 102.402 321.173 102.157C320.943 101.911 320.659 101.72 320.322 101.582C320 101.444 319.655 101.375 319.287 101.375C318.919 101.375 318.566 101.444 318.229 101.582C317.907 101.72 317.623 101.911 317.378 102.157C317.148 102.402 316.956 102.686 316.803 103.008C316.665 103.33 316.596 103.675 316.596 104.043ZM312.203 103.997C312.203 103.123 312.379 102.31 312.732 101.559C313.085 100.792 313.575 100.133 314.204 99.5807C314.833 99.0133 315.576 98.5687 316.435 98.2467C317.309 97.9247 318.26 97.7637 319.287 97.7637C320.299 97.7637 321.234 97.9247 322.093 98.2467C322.967 98.5533 323.718 98.9903 324.347 99.5577C324.991 100.11 325.489 100.777 325.842 101.559C326.195 102.325 326.371 103.176 326.371 104.112C326.371 105.047 326.187 105.906 325.819 106.688C325.466 107.454 324.976 108.121 324.347 108.689C323.718 109.241 322.959 109.67 322.07 109.977C321.196 110.283 320.245 110.437 319.218 110.437C318.206 110.437 317.271 110.283 316.412 109.977C315.553 109.67 314.81 109.233 314.181 108.666C313.568 108.098 313.085 107.424 312.732 106.642C312.379 105.844 312.203 104.963 312.203 103.997Z" fill="#EFBE56"></path><path d="M332.93 90.9097V110H328.767V90.9097H332.93Z" fill="#EFBE56"></path><path d="M339.639 104.066C339.639 104.449 339.708 104.809 339.846 105.147C339.984 105.469 340.168 105.752 340.398 105.998C340.644 106.243 340.927 106.435 341.249 106.573C341.587 106.711 341.947 106.78 342.33 106.78C342.698 106.78 343.043 106.711 343.365 106.573C343.703 106.435 343.986 106.243 344.216 105.998C344.462 105.752 344.653 105.469 344.791 105.147C344.945 104.825 345.021 104.48 345.021 104.112C345.021 103.744 344.945 103.399 344.791 103.077C344.653 102.739 344.462 102.448 344.216 102.203C343.986 101.957 343.703 101.766 343.365 101.628C343.043 101.49 342.698 101.421 342.33 101.421C341.962 101.421 341.61 101.49 341.272 101.628C340.95 101.766 340.667 101.957 340.421 102.203C340.191 102.448 340 102.732 339.846 103.054C339.708 103.36 339.639 103.698 339.639 104.066ZM344.883 90.9097H349.069V110H344.883V108.689C343.994 109.808 342.79 110.368 341.272 110.368C340.414 110.368 339.624 110.207 338.903 109.885C338.183 109.563 337.554 109.118 337.017 108.551C336.481 107.983 336.059 107.316 335.752 106.55C335.461 105.783 335.315 104.955 335.315 104.066C335.315 103.222 335.453 102.425 335.729 101.674C336.021 100.907 336.427 100.24 336.948 99.6727C337.47 99.1053 338.091 98.6607 338.811 98.3387C339.547 98.0013 340.352 97.8327 341.226 97.8327C342.698 97.8327 343.917 98.3463 344.883 99.3737V90.9097Z" fill="#EFBE56"></path></svg> 